<?xml version="1.0" encoding="UTF-8" standalone="no"?>
<!DOCTYPE svg PUBLIC "-//W3C//DTD SVG 1.1//EN" "http://www.w3.org/Graphics/SVG/1.1/DTD/svg11.dtd">
<svg width="100%" height="100%" viewBox="0 0 1920 300" version="1.1" xmlns="http://www.w3.org/2000/svg" xmlns:xlink="http://www.w3.org/1999/xlink" xml:space="preserve" xmlns:serif="http://www.serif.com/" style="fill-rule:evenodd;clip-rule:evenodd;stroke-linejoin:round;stroke-miterlimit:2;">
    <path d="M-193.717,21.843C-143.478,25.358 90.57,107.643 212.374,123.788C319.693,138.014 431.737,93.88 537.107,118.716C661.711,148.084 806.633,300.962 960,300C1134.744,298.904 1368.68,131.16 1585.571,112.139C1811.096,92.361 2247.621,153.054 2313.15,181.332C2378.679,209.611 2089.709,246.682 1978.745,281.81C1748.752,354.62 1271.275,561.643 933.193,618.192C610.036,672.245 120.634,707.02 -49.742,621.105C-204.479,543.075 -65.063,202.574 -89.059,102.697C-99.357,59.833 -237.693,18.766 -193.717,21.843Z" style="fill:rgb(244,233,188);"/>
</svg>
