<svg xmlns="http://www.w3.org/2000/svg" xml:space="preserve" style="fill-rule:evenodd;clip-rule:evenodd;stroke-linejoin:round;stroke-miterlimit:2" viewBox="0 0 1920 300"><path d="M-193.717 21.843c50.239 3.515 284.287 85.8 406.091 101.945 107.319 14.226 219.363-29.908 324.733-5.072C661.711 148.084 806.633 300.962 960 300c174.744-1.096 408.68-168.84 625.571-187.861 225.525-19.778 662.05 40.915 727.579 69.193 65.529 28.279-223.441 65.35-334.405 100.478-229.993 72.81-707.47 279.833-1045.552 336.382-323.157 54.053-812.559 88.828-982.935 2.913-154.737-78.03-15.321-418.531-39.317-518.408-10.298-42.864-148.634-83.931-104.658-80.854" style="fill:#f4e9bc"/></svg>